Coordinates
version=1
nRows=43
nColumns=12
inDegrees=yes

Units are S.I. units (second, meters, Newtons, ...)
Angles are in degrees

endheader
time	SC_y	SC_z	SC_x	AC_y	AC_z	AC_x	GH_y	GH_z	GH_yy	EL_x	PS_y
       0.0               -18.2          29.09         0.8224           45.9          -16.7          17.01          176.4         -6.863          127.6          49.77          78.15
   0.04456               -18.2          29.08         0.8267           45.9          -16.7          17.01          176.4         -6.852          127.6          49.76          78.16
   0.08911               -18.2          29.08         0.8312           45.9         -16.69          17.01          176.3         -6.841          127.5          49.76          78.16
    0.1337              -18.21          29.08          0.836          45.91         -16.69           17.0          176.3         -6.829          127.5          49.75          78.16
    0.1782              -18.21          29.07         0.8411          45.91         -16.69           17.0          176.3         -6.816          127.5          49.74          78.17
    0.2228              -18.21          29.06         0.8466          45.91         -16.68          16.99          176.3         -6.802          127.4          49.74          78.18
    0.2673              -18.22          29.06         0.8524          45.91         -16.68          16.99          176.3         -6.788          127.4          49.73          78.18
    0.3119              -18.22          29.05         0.8586          45.91         -16.67          16.98          176.3         -6.772          127.3          49.72          78.19
    0.3564              -18.22          29.04         0.8653          45.91         -16.67          16.98          176.3         -6.756          127.3          49.71           78.2
     0.401              -18.23          29.04         0.8724          45.91         -16.66          16.97          176.3         -6.738          127.2           49.7           78.2
    0.4456              -18.23          29.03         0.8801          45.91         -16.66          16.96          176.3         -6.719          127.1          49.69          78.21
    0.4901              -18.24          29.02         0.8884          45.92         -16.65          16.96          176.3         -6.698          127.1          49.68          78.22
    0.5347              -18.25          29.01         0.8973          45.92         -16.64          16.95          176.3         -6.676          127.0          49.67          78.23
    0.5792              -18.25           29.0         0.9069          45.92         -16.64          16.94          176.3         -6.652          126.9          49.66          78.24
    0.6238              -18.26          28.99         0.9174          45.92         -16.63          16.93          176.2         -6.626          126.8          49.64          78.25
    0.6683              -18.27          28.98         0.9287          45.92         -16.62          16.92          176.2         -6.597          126.7          49.63          78.26
    0.7129              -18.27          28.97         0.9409          45.93         -16.61          16.91          176.2         -6.567          126.6          49.61          78.27
    0.7574              -18.28          28.95         0.9543          45.93          -16.6           16.9          176.2         -6.533          126.5           49.6          78.29
     0.802              -18.29          28.94         0.9689          45.93         -16.59          16.89          176.2         -6.497          126.4          49.58           78.3
    0.8466               -18.3          28.92         0.9849          45.94         -16.58          16.87          176.2         -6.457          126.3          49.56          78.32
    0.8911              -18.31           28.9          1.002          45.94         -16.56          16.86          176.1         -6.413          126.1          49.53          78.34
    0.9357              -18.33          28.88          1.022          45.94         -16.55          16.84          176.1         -6.364          126.0          49.51          78.36
    0.9802              -18.34          28.86          1.043          45.95         -16.53          16.82          176.1         -6.311          125.8          49.48          78.38
     1.025              -18.36          28.83          1.067          45.95         -16.52           16.8          176.1         -6.252          125.6          49.45           78.4
     1.069              -18.37          28.81          1.093          45.96          -16.5          16.78          176.0         -6.186          125.4          49.41          78.43
     1.114              -18.39          28.78          1.122          45.96         -16.47          16.76          176.0         -6.113          125.2          49.38          78.46
     1.158              -18.41          28.74          1.155          45.97         -16.45          16.73          176.0         -6.031          124.9          49.33          78.49
     1.203              -18.44           28.7          1.192          45.98         -16.42           16.7          175.9         -5.938          124.6          49.29          78.53
     1.248              -18.47          28.66          1.234          45.99         -16.39          16.66          175.9         -5.834          124.2          49.23          78.57
     1.292               -18.5          28.61          1.282           46.0         -16.35          16.62          175.8         -5.715          123.8          49.17          78.62
     1.337              -18.53          28.55          1.336          46.01         -16.31          16.58          175.8          -5.58          123.4           49.1          78.68
     1.381              -18.57          28.49          1.398          46.02         -16.27          16.52          175.7         -5.425          122.9          49.02          78.74
     1.426              -18.62          28.41           1.47          46.04         -16.21          16.46          175.6         -5.246          122.3          48.92          78.82
      1.47              -18.67          28.32          1.553          46.05         -16.15          16.39          175.5         -5.037          121.6          48.82           78.9
     1.515              -18.74          28.22          1.651          46.07         -16.08          16.31          175.4         -4.793          120.8          48.69           79.0
     1.559              -18.81           28.1          1.766           46.1         -15.99          16.21          175.3         -4.506          119.9          48.54          79.12
     1.604               -18.9          27.96          1.902          46.12         -15.89          16.09          175.1         -4.165          118.8          48.36          79.26
     1.649              -19.01          27.79          2.066          46.16         -15.76          15.95          174.9         -3.755          117.4          48.15          79.43
     1.693              -19.14          27.58          2.264           46.2         -15.61          15.78          174.7          -3.26          115.8          47.89          79.63
     1.738               -19.3          27.33          2.506          46.25         -15.43          15.58          174.4         -2.655          113.8          47.58          79.88
     1.782              -19.49          27.01          2.805          46.31         -15.21          15.32          174.1         -1.908          111.4          47.19          80.19
     1.827              -19.74          26.62          3.178          46.38         -14.92          15.01          173.7        -0.9773          108.3           46.7          80.57
     1.871              -20.04          26.13          3.647          46.48         -14.57          14.61          173.1         0.1955          104.5          46.09          81.05
